<svg width="1920" height="764" viewBox="0 0 1920 764" fill="none" xmlns="http://www.w3.org/2000/svg">
<g opacity="0.1">
<line x1="0" y1="0" x2="1920" y2="0" stroke="#024340" stroke-width="1"/>
<line x1="0" y1="100" x2="1920" y2="100" stroke="#024340" stroke-width="1"/>
<line x1="0" y1="200" x2="1920" y2="200" stroke="#024340" stroke-width="1"/>
<line x1="0" y1="300" x2="1920" y2="300" stroke="#024340" stroke-width="1"/>
<line x1="0" y1="400" x2="1920" y2="400" stroke="#024340" stroke-width="1"/>
<line x1="0" y1="500" x2="1920" y2="500" stroke="#024340" stroke-width="1"/>
<line x1="0" y1="600" x2="1920" y2="600" stroke="#024340" stroke-width="1"/>
<line x1="0" y1="700" x2="1920" y2="700" stroke="#024340" stroke-width="1"/>
<line x1="100" y1="0" x2="100" y2="764" stroke="#024340" stroke-width="1"/>
<line x1="200" y1="0" x2="200" y2="764" stroke="#024340" stroke-width="1"/>
<line x1="300" y1="0" x2="300" y2="764" stroke="#024340" stroke-width="1"/>
<line x1="400" y1="0" x2="400" y2="764" stroke="#024340" stroke-width="1"/>
<line x1="500" y1="0" x2="500" y2="764" stroke="#024340" stroke-width="1"/>
<line x1="600" y1="0" x2="600" y2="764" stroke="#024340" stroke-width="1"/>
<line x1="700" y1="0" x2="700" y2="764" stroke="#024340" stroke-width="1"/>
<line x1="800" y1="0" x2="800" y2="764" stroke="#024340" stroke-width="1"/>
<line x1="900" y1="0" x2="900" y2="764" stroke="#024340" stroke-width="1"/>
<line x1="1000" y1="0" x2="1000" y2="764" stroke="#024340" stroke-width="1"/>
<line x1="1100" y1="0" x2="1100" y2="764" stroke="#024340" stroke-width="1"/>
<line x1="1200" y1="0" x2="1200" y2="764" stroke="#024340" stroke-width="1"/>
<line x1="1300" y1="0" x2="1300" y2="764" stroke="#024340" stroke-width="1"/>
<line x1="1400" y1="0" x2="1400" y2="764" stroke="#024340" stroke-width="1"/>
<line x1="1500" y1="0" x2="1500" y2="764" stroke="#024340" stroke-width="1"/>
<line x1="1600" y1="0" x2="1600" y2="764" stroke="#024340" stroke-width="1"/>
<line x1="1700" y1="0" x2="1700" y2="764" stroke="#024340" stroke-width="1"/>
<line x1="1800" y1="0" x2="1800" y2="764" stroke="#024340" stroke-width="1"/>
<line x1="1900" y1="0" x2="1900" y2="764" stroke="#024340" stroke-width="1"/>
</g>
</svg>